/vscmnt/brussel_pixiu_data/_data_brussel/112/vsc11236/PredSimResults/SUBJ09mtu3D/worker6.mot
version=1
nRows=4
nColumns=50
inDegrees=yes
endheader
                time	         pelvis_tilt	         pelvis_list	     pelvis_rotation	           pelvis_tx	           pelvis_ty	           pelvis_tz	       hip_flexion_r	     hip_adduction_r	      hip_rotation_r	        knee_angle_r	       ankle_angle_r	         mtp_angle_r	       hip_flexion_l	     hip_adduction_l	      hip_rotation_l	        knee_angle_l	       ankle_angle_l	         mtp_angle_l	    lumbar_extension	      lumbar_bending	     lumbar_rotation	 ercspn_r/activation	 intobl_r/activation	 extobl_r/activation	    abd_r/activation	    add_r/activation	hamstrings_r/activation	bifemsh_r/activation	glut_max_r/activation	iliopsoas_r/activation	rect_fem_r/activation	  vasti_r/activation	gastroc_r/activation	 soleus_r/activation	tib_ant_r/activation	 ercspn_l/activation	 intobl_l/activation	 extobl_l/activation	    abd_l/activation	    add_l/activation	hamstrings_l/activation	bifemsh_l/activation	glut_max_l/activation	iliopsoas_l/activation	rect_fem_l/activation	  vasti_l/activation	gastroc_l/activation	 soleus_l/activation	tib_ant_l/activation	
          1.25658812	         -4.24632545	         -0.85615056	          8.29731735	          1.55816926	          0.98860953	         -0.00330698	         29.03359256	         -1.83272594	         -8.87119886	         -6.34948112	          4.28313797	          0.24613861	        -14.35117496	         -2.45132988	         -4.62330642	         -9.71166309	          3.64522944	         36.85646395	        -13.55394721	         -1.19828837	         -6.79145786	          0.02941228	          0.15643866	          0.03009251	          0.01000809	          0.21901314	          0.06799365	          0.13545024	          0.08939892	          0.13479616	          0.01116144	          0.01000046	          0.01462811	          0.01000038	          0.32533183	          0.03276105	          0.01000037	          0.01000048	          0.02667605	          0.01209465	          0.01480493	          0.17680118	          0.01152324	          0.01210590	          0.01000156	          0.01000063	          0.31005477	          0.21395029	          0.01252238	
          1.26915400	         -4.27353705	         -0.98205828	          8.30453863	          1.57830556	          0.98637986	         -0.00259965	         28.98388180	         -1.66930569	         -9.01676527	         -8.23593846	          3.87595068	          0.20891088	        -15.02059670	         -2.80583954	         -5.04809061	        -10.42269252	          2.46829105	         38.44703972	        -13.04066947	         -0.74741889	         -7.00333459	          0.02431940	          0.12934898	          0.02488156	          0.07384395	          0.18539282	          0.06742702	          0.11199519	          0.12864973	          0.11145418	          0.01000039	          0.01000049	          0.01209685	          0.01209447	          0.36464496	          0.02708875	          0.01000026	          0.01000122	          0.02205670	          0.01000185	          0.01226740	          0.14618619	          0.01000081	          0.01001162	          0.01000093	          0.01000116	          0.28160343	          0.19153679	          0.01035396	
          1.28171988	         -4.28298768	         -1.11712709	          8.27796235	          1.59868358	          0.98448292	         -0.00180940	         28.84129580	         -1.49046508	         -9.15096059	        -10.00045648	          3.32840860	          0.20153044	        -15.48733717	         -3.19020882	         -5.49386007	        -11.53114777	          1.17324755	         39.96320239	        -12.51640926	         -0.28633067	         -7.18384048	          0.02349983	          0.10695027	          0.02057297	          0.12853958	          0.20667641	          0.05575137	          0.09260169	          0.16870637	          0.09215423	          0.01000037	          0.01000040	          0.01000222	          0.01000021	          0.40879214	          0.03585985	          0.01000010	          0.01000027	          0.01823726	          0.01000049	          0.01014350	          0.12087233	          0.01000017	          0.03200874	          0.01000140	          0.01000069	          0.23330047	          0.15987193	          0.01000005	
          1.29428576	         -4.27581046	         -1.25112610	          8.21827892	          1.61896111	          0.98311576	         -0.00092283	         28.75461651	         -1.31041338	         -9.28092774	        -11.87631853	          2.78810242	          0.16741354	        -15.64074003	         -3.60305159	         -5.95216189	        -13.20112564	         -0.19055469	         41.23964430	        -12.02245817	          0.17360503	         -7.33094134	          0.03483808	          0.08843023	          0.01701048	          0.17674087	          0.25530960	          0.05207069	          0.07656645	          0.17273171	          0.07619634	          0.01000053	          0.07309615	          0.01000094	          0.01000083	          0.42957899	          0.08863711	          0.01000032	          0.01000022	          0.01507921	          0.04064702	          0.01771810	          0.09994189	          0.01000024	          0.02647027	          0.01000090	          0.01000172	          0.19290101	          0.13218774	          0.01000006	
